<svg viewBox="0 0 418 409" xmlns="http://www.w3.org/2000/svg">
    <g>
      <path 
        d="M 242.77 393.06 C229.90,395.46 199.79,396.51 189.00,394.95 C151.09,389.46 123.83,378.35 94.50,356.44 C70.78,338.73 47.43,310.34 35.90,285.20 C24.52,260.38 19.32,238.98 18.34,213.00 C16.87,173.76 25.31,139.55 44.24,108.00 C62.38,77.76 89.08,52.11 119.00,36.17 C147.54,20.97 175.75,14.04 209.00,14.04 C227.72,14.04 241.77,15.64 257.00,19.50 C274.41,23.91 299.49,34.10 297.37,35.90 C296.89,36.31 293.49,37.89 289.81,39.41 C286.13,40.93 280.73,43.62 277.81,45.38 L 272.50 48.58 L 261.00 44.88 C245.64,39.94 233.54,37.92 215.49,37.28 C157.74,35.23 105.90,60.71 72.26,107.68 C53.12,134.41 42.91,164.75 41.38,199.50 C39.91,232.83 49.47,266.53 68.64,295.66 C75.33,305.82 79.00,310.29 89.33,320.85 C123.85,356.14 169.90,374.83 217.00,372.66 C259.20,370.71 300.48,351.42 331.00,319.37 C344.29,305.42 353.41,291.97 361.93,273.77 C371.90,252.46 375.98,235.25 376.72,211.27 C377.74,178.27 372.33,154.86 356.78,124.88 L 350.75 113.26 L 354.73 107.38 C356.92,104.15 359.69,99.59 360.88,97.25 C362.07,94.91 363.39,93.00 363.82,93.00 C365.38,93.00 375.55,109.87 381.59,122.50 C392.08,144.43 398.01,166.62 400.13,191.83 C403.82,235.89 388.81,284.45 360.00,321.70 C351.01,333.33 331.41,351.82 318.47,360.89 C296.89,376.01 267.65,388.44 242.77,393.06 M 217.00 353.51 C216.18,357.45 214.83,360.31 212.65,362.68 L 209.50 366.12 L 209.49 355.81 C209.48,346.10 209.31,345.21 206.47,340.57 C204.81,337.87 202.95,335.48 202.35,335.28 C200.81,334.77 187.00,348.34 187.00,350.36 C187.00,353.36 185.10,352.05 184.45,348.61 C183.71,344.63 184.80,342.22 190.14,336.12 C195.45,330.07 196.20,326.69 194.08,318.53 C193.13,314.89 192.02,311.90 191.61,311.90 C191.20,311.90 189.38,313.83 187.56,316.20 C185.75,318.56 181.62,322.41 178.38,324.75 C169.77,330.97 166.02,337.01 164.77,346.68 C163.35,357.70 163.08,358.16 160.85,353.50 C159.31,350.29 159.00,347.80 159.27,340.90 L 159.60 332.29 L 155.05 332.76 C149.67,333.32 143.56,335.80 137.44,339.94 C135.00,341.58 133.00,342.75 133.00,342.53 C133.00,340.85 135.40,336.61 138.09,333.55 C142.18,328.89 146.86,326.51 155.02,324.95 C163.58,323.31 167.80,321.08 171.80,316.11 C175.43,311.58 174.93,311.28 167.50,313.55 C163.83,314.67 158.90,315.00 149.00,314.81 L 135.50 314.54 L 127.00 318.97 C119.96,322.64 117.56,323.40 113.00,323.40 C109.97,323.40 106.15,322.81 104.50,322.08 L 101.50 320.76 L 107.63 319.47 C114.28,318.07 117.48,316.63 124.37,311.98 C132.15,306.73 135.69,305.73 149.01,305.03 C160.54,304.42 162.00,304.12 167.57,301.15 C183.26,292.79 189.72,282.61 195.61,257.00 C201.60,230.92 209.40,207.11 218.21,188.00 C220.37,183.32 222.78,177.04 223.57,174.04 C225.02,168.52 225.51,151.81 224.39,146.20 C223.83,143.40 223.38,143.11 218.64,142.51 C207.02,141.05 194.69,135.48 188.38,128.84 C181.05,121.13 178.85,115.89 171.95,89.62 C171.24,86.94 169.17,82.56 167.33,79.89 C165.50,77.23 164.00,74.81 164.00,74.52 C164.00,74.24 168.84,74.01 174.75,74.02 C207.31,74.07 229.10,87.71 234.13,111.18 C234.88,114.66 235.02,120.13 234.53,127.00 C233.64,139.64 233.75,144.30 235.07,149.24 L 236.07 152.97 L 244.92 139.74 C259.68,117.68 277.57,98.28 295.50,84.88 C301.56,80.35 315.06,71.74 320.41,68.99 C322.44,67.95 322.83,67.41 321.72,67.19 C319.46,66.75 304.82,73.22 295.42,78.81 C282.99,86.20 273.11,94.10 262.64,105.01 L 253.00 115.05 L 253.00,108.09 C253.00,92.49 259.40,75.20 269.10,64.59 C288.38,43.49 325.53,34.29 368.00,40.11 C372.12,40.67 377.23,41.59 379.35,42.13 L 383.19 43.13 L 377.32 49.31 C369.94,57.07 366.20,62.98 361.01,75.01 C350.89,98.51 346.22,106.00 335.78,115.49 C321.34,128.60 301.73,134.69 277.32,133.65 L 264.13 133.09 L 257.86 142.80 C251.96,151.93 238.00,178.14 238.00,180.09 C238.00,180.58 242.16,178.77 247.25,176.06 C253.61,172.67 257.38,169.94 259.31,167.32 C270.11,152.64 281.05,147.34 298.76,148.21 C306.94,148.61 309.70,149.21 316.00,151.97 C320.12,153.77 325.75,156.84 328.50,158.79 C333.60,162.40 347.00,174.93 347.00,176.09 C347.00,176.44 343.74,177.50 339.75,178.44 C335.76,179.39 327.74,182.57 321.92,185.51 C316.11,188.45 308.46,191.61 304.92,192.53 C292.56,195.76 280.38,193.04 266.40,183.94 L 259.81 179.64 L 255.16 182.07 C252.60,183.41 246.42,188.55 241.43,193.50 C234.09,200.79 231.49,204.22 227.73,211.57 C220.35,226.00 215.71,247.12 215.65,266.50 C215.61,283.83 220.79,293.55 233.54,300.02 C240.17,303.39 240.85,303.52 254.95,304.10 C270.53,304.74 269.68,304.51 286.50,312.49 C299.70,318.74 305.30,320.35 311.64,319.70 C314.59,319.39 317.00,319.33 317.00,319.55 C317.00,319.78 315.09,320.98 312.75,322.23 C309.24,324.10 307.02,324.49 300.00,324.42 C291.92,324.35 290.95,324.09 280.34,319.14 L 269.17 313.92 L 254.74 314.61 C241.67,315.22 239.64,315.09 233.25,313.14 C223.73,310.25 223.04,310.41 227.05,314.59 C232.85,320.62 237.51,322.69 246.72,323.35 C256.07,324.01 261.42,326.22 267.23,331.79 C270.51,334.94 273.90,341.44 272.82,342.52 C272.61,342.73 270.42,341.29 267.97,339.32 C261.98,334.52 256.36,332.05 251.40,332.02 L 247.31,332.00 L 250.24 337.75 C252.79,342.74 253.12,344.30 252.72,349.57 C252.47,352.92 251.67,356.74 250.95,358.07 C249.70,360.40 249.59,360.24 248.29,354.39 C245.89,343.63 241.99,338.63 229.50,330.26 C215.91,321.15 213.20,318.46 208.08,309.00 C204.08,301.60 204.03,301.55 204.01,305.20 C203.99,311.92 206.19,319.37 211.09,329.16 C217.49,341.94 218.52,346.18 217.00,353.51 M 179.05 282.28 C177.05,285.24 175.90,287.39 174.57,287.51 C172.25,287.73 169.35,281.81 160.32,263.35 C159.41,261.48 158.43,259.49 157.39,257.36 C148.79,239.84 138.27,218.30 133.99,209.50 C106.66,153.17 94.40,128.98 91.29,125.18 L 87.74 120.85 L 107.74 121.17 L 127.74 121.50 L 134.55 125.05 C138.69,127.21 142.84,130.36 145.10,133.05 C147.49,135.90 157.01,154.43 171.51,184.50 L 194.18 231.50 L 193.02 236.50 C192.38,239.25 190.35,248.02 188.51,256.00 C184.81,272.00 183.47,275.73 179.05,282.28 M 232.79 272.50 C230.00,278.55 227.41,283.85 227.03,284.28 C225.95,285.50 224.11,280.54 222.88,273.11 C220.56,259.09 227.10,227.52 235.43,212.49 C239.77,204.66 253.30,190.46 257.40,189.43 C259.25,188.97 261.25,189.61 264.72,191.78 C267.35,193.43 269.41,195.16 269.30,195.63 C269.20,196.11 262.07,211.12 253.48,229.00 C244.88,246.88 235.57,266.45 232.79,272.50 M 303.31 273.02 C295.70,277.84 287.91,276.85 280.66,270.13 C276.49,266.26 275.00,262.74 275.02,256.80 C275.05,250.44 276.70,246.57 286.30,230.30 C292.95,219.03 295.00,216.38 295.00,219.03 C295.00,219.59 298.57,226.00 302.93,233.28 C307.29,240.55 311.38,248.49 312.02,250.93 C314.38,259.98 311.21,268.01 303.31,273.02 M 295.00 267.17 C295.00,268.37 296.28,268.20 300.45,266.46 C304.90,264.60 307.49,259.43 306.63,254.13 C305.93,249.78 304.01,247.55 303.98,251.05 C303.95,254.53 300.72,261.08 297.63,263.92 C296.18,265.26 295.00,266.72 295.00,267.17" 
        fill="rgb(94,143,71)"
      />
      <path 
        d="M 295.00 267.17 C295.00,266.72 296.18,265.26 297.63,263.92 C299.21,262.47 300.83,260.04 302.04,257.55 C300.70,260.72 299.00,263.88 298.10,264.44 C297.50,264.81 297.00,265.59 297.00,266.17 C297.00,266.96 299.12,266.81 301.10,266.16 C300.88,266.26 300.67,266.37 300.45,266.46 C296.28,268.20 295.00,268.37 295.00,267.17 ZM 209.02 310.70 C206.59,306.47 204.40,304.77 204.05,306.80 C204.02,306.26 204.01,305.73 204.01,305.20 C204.03,301.55 204.08,301.60 208.08,309.00 C208.40,309.59 208.71,310.16 209.02,310.70 ZM 222.69 325.57 C214.97,320.05 212.55,317.23 209.48,311.53 C209.40,311.39 209.32,311.25 209.25,311.11 C212.75,317.27 215.53,320.40 222.69,325.57 ZM 305.85 260.90 C306.48,258.87 306.83,256.49 306.69,254.54 C306.98,256.77 306.66,258.97 305.85,260.90 ZM 205.80 316.36 C207.05,320.27 208.88,324.74 211.09,329.16 C208.71,324.40 206.97,320.20 205.80,316.36 ZM 304.97 249.55 C304.43,249.11 304.00,249.56 303.99,251.19 C303.99,251.41 303.96,251.68 303.91,251.98 C303.95,251.65 303.98,251.34 303.98,251.05 C303.99,249.39 304.43,249.02 304.97,249.55 Z" 
        fill="rgb(190,215,178)"
      />
    </g>
</svg>